<?xml version="1.0" encoding="utf-8"?>
<!-- Generator: Adobe Illustrator 27.8.1, SVG Export Plug-In . SVG Version: 6.00 Build 0)  -->
<svg version="1.1" id="Capa_2_00000076584677540455898250000018300863845730955680_"
	 xmlns="http://www.w3.org/2000/svg" xmlns:xlink="http://www.w3.org/1999/xlink" x="0px" y="0px" viewBox="0 0 457.3 445.1"
	 style="enable-background:new 0 0 457.3 445.1;" xml:space="preserve">
<g id="github_black">
	<path d="M457.3,228.6C457.3,102.4,354.9,0,228.6,0S0,102.4,0,228.6C0,328.9,64.5,414,154.2,444.9c5.5-4,11.8-8.8,11.8-17
		c0-12.6-0.3-44.9-0.3-44.9s-9.9,1.7-24.1,1.7c-35.7,0-47-22.6-52.3-35.3c-7-16.5-16.1-24.3-25.7-30.5c-5.9-3.8-7.3-8.3-0.4-9.6
		c31.6-5.9,39.7,35.6,60.8,42.2c15.1,4.7,34.4,2.7,44.1-3.5c1.3-12.7,10.5-23.7,18.1-29.4c-53.7-5.1-85.5-23.7-102-53.5l-1.8-3.3
		l-4.2-9.5l-1.2-3.4c-5.2-15.1-7.4-32.4-7.4-51.8c0-34.3,10.8-47.3,25.2-65.6c-11.1-39.2,4-65.9,4-65.9s23.2-4.8,67.1,26.5
		c23.8-10.1,87.2-11,117.3-2.2c18.4-12.1,52.1-29.3,65.7-24.5c3.7,5.9,11.6,23.1,4.8,60.8c4.6,8.3,28.6,25.9,28.7,75.8
		c-0.4,18.4-2.3,33.9-5.9,47l-2,6.7c0,0-1.1,3.2-2.4,6.2l-1.5,3.3c-15.9,34.8-48.6,47.8-101.3,53.1c17.1,10.7,22,24.1,22,60.5
		s-0.5,41.2-0.4,49.6c0.1,7.4,6,12.7,11.3,16.7C392.5,414.5,457.3,329.2,457.3,228.6L457.3,228.6z"/>
</g>
</svg>
