<?xml version="1.0" encoding="utf-8"?>
<!-- Generator: Adobe Illustrator 27.8.1, SVG Export Plug-In . SVG Version: 6.00 Build 0)  -->
<svg version="1.1" id="Capa_1" xmlns="http://www.w3.org/2000/svg" xmlns:xlink="http://www.w3.org/1999/xlink" x="0px" y="0px"
	 viewBox="0 0 1582.7 1796" style="enable-background:new 0 0 1582.7 1796;" xml:space="preserve">
<style type="text/css">
	.st0{fill:#E34E26;}
	.st1{fill:#EF662A;}
	.st2{fill:#FFFFFF;}
	.st3{fill:#EBEBEB;}
</style>
<g id="Logo_artwork">
</g>
<g id="Guides_to_delete">
	<g>
		<polygon class="st0" points="144.1,1616.4 0,0 1582.7,0 1438.5,1616.5 791,1796 		"/>
		<polygon class="st1" points="791.4,132.1 791.4,1658.7 1314.9,1513.6 1438.3,132.1 		"/>
		<polygon class="st2" points="294.8,330.4 348.3,929.9 1035.4,929.9 1012.4,1187.1 791.1,1246.9 570.3,1187.1 555.5,1022 
			356.5,1022 385,1340.3 791.1,1453.1 1197.7,1340.3 1252.2,731.7 529.6,731.7 511.5,528.7 1269.5,528.7 1270.1,528.7 1287.9,330.4 
					"/>
		<g>
			<polygon class="st3" points="791.4,330.4 294.8,330.4 348.3,929.9 791.4,929.9 791.4,731.7 529.6,731.7 511.5,528.7 791.4,528.7 
							"/>
			<polygon class="st3" points="791.4,1246.8 791.1,1246.9 570.3,1187.1 555.5,1022 356.5,1022 385,1340.3 791.1,1453.1 791.4,1453 
							"/>
		</g>
	</g>
</g>
</svg>
