<?xml version="1.0" encoding="utf-8"?>
<!-- Generator: Adobe Illustrator 27.8.1, SVG Export Plug-In . SVG Version: 6.00 Build 0)  -->
<svg version="1.1" id="Capa_1" xmlns="http://www.w3.org/2000/svg" xmlns:xlink="http://www.w3.org/1999/xlink" x="0px" y="0px"
	 viewBox="0 0 448 448" style="enable-background:new 0 0 448 448;" xml:space="preserve">
<style type="text/css">
	.st0{fill:#478AFF;}
</style>
<path class="st0" d="M224,121.9c-56.4,0-102.1,45.7-102.1,102.1S167.6,326.1,224,326.1S326.1,280.4,326.1,224
	C326,167.6,280.4,122,224,121.9z"/>
<circle class="st0" cx="370.6" cy="84.5" r="46.5"/>
<path class="st0" d="M427.9,131.2l-2-4.3l-3.1,3.5c-7.6,8.7-17.3,15.3-28.1,19.3l-3,1.1l1.2,2.9c9.3,22.2,14.1,46.1,14,70.2
	c0,100.9-82.1,183-183,183S41,324.9,41,224S123.1,41,224,41c27.1-0.1,53.9,6,78.4,17.7l2.9,1.3l1.2-2.9
	c4.6-10.6,11.7-19.9,20.7-27.1l3.7-2.9l-4.2-2.1C295,8.5,259.8-0.1,224,0C100.5,0,0,100.5,0,224s100.5,224,224,224
	s224-100.5,224-224C448.1,192,441.2,160.3,427.9,131.2z"/>
</svg>
